<?xml version="1.0" ?><!DOCTYPE svg  PUBLIC '-//W3C//DTD SVG 1.1//EN'  'http://www.w3.org/Graphics/SVG/1.1/DTD/svg11.dtd'><svg height="510.000" viewBox="-1.000 2.000 917.000 510.000" width="917.000" xmlns="http://www.w3.org/2000/svg"><line fill="none" stroke="#0f0" stroke-width="20.0" x1="30.0" x2="885.0" y1="50.0" y2="50.0"/><text fill="#000" font-family=".SF NS Text" font-size="13.0pt" stroke-width="0.0" text-anchor="middle" x="29.5" y="25">900</text><line fill="none" stroke="#000" x1="29.5" x2="29.5" y1="500.0" y2="30.0"/><text fill="#000" font-family=".SF NS Text" font-size="13.0pt" stroke-width="0.0" text-anchor="middle" x="115.0" y="25">950</text><line fill="none" stroke="#000" x1="115.0" x2="115.0" y1="500.0" y2="30.0"/><text fill="#000" font-family=".SF NS Text" font-size="13.0pt" stroke-width="0.0" text-anchor="middle" x="200.5" y="25">1000</text><line fill="none" stroke="#000" x1="200.5" x2="200.5" y1="500.0" y2="30.0"/><text fill="#000" font-family=".SF NS Text" font-size="13.0pt" stroke-width="0.0" text-anchor="middle" x="286.0" y="25">1050</text><line fill="none" stroke="#000" x1="286.0" x2="286.0" y1="500.0" y2="30.0"/><text fill="#000" font-family=".SF NS Text" font-size="13.0pt" stroke-width="0.0" text-anchor="middle" x="371.5" y="25">1100</text><line fill="none" stroke="#000" x1="371.5" x2="371.5" y1="500.0" y2="30.0"/><text fill="#000" font-family=".SF NS Text" font-size="13.0pt" stroke-width="0.0" text-anchor="middle" x="457.0" y="25">1150</text><line fill="none" stroke="#000" x1="457.0" x2="457.0" y1="500.0" y2="30.0"/><text fill="#000" font-family=".SF NS Text" font-size="13.0pt" stroke-width="0.0" text-anchor="middle" x="542.5" y="25">1200</text><line fill="none" stroke="#000" x1="542.5" x2="542.5" y1="500.0" y2="30.0"/><text fill="#000" font-family=".SF NS Text" font-size="13.0pt" stroke-width="0.0" text-anchor="middle" x="628.0" y="25">1250</text><line fill="none" stroke="#000" x1="628.0" x2="628.0" y1="500.0" y2="30.0"/><text fill="#000" font-family=".SF NS Text" font-size="13.0pt" stroke-width="0.0" text-anchor="middle" x="713.5" y="25">1300</text><line fill="none" stroke="#000" x1="713.5" x2="713.5" y1="500.0" y2="30.0"/><text fill="#000" font-family=".SF NS Text" font-size="13.0pt" stroke-width="0.0" text-anchor="middle" x="799.0" y="25">1350</text><line fill="none" stroke="#000" x1="799.0" x2="799.0" y1="500.0" y2="30.0"/><text fill="#000" font-family=".SF NS Text" font-size="13.0pt" stroke-width="0.0" text-anchor="middle" x="884.5" y="25">1400</text><line fill="none" stroke="#000" x1="884.5" x2="884.5" y1="500.0" y2="30.0"/><line fill="none" stroke="#0f0" stroke-width="5.0" x1="31.0" x2="30.0" y1="128.0" y2="128.0"/><line fill="none" stroke="#0f0" stroke-width="5.0" x1="31.0" x2="30.0" y1="134.5" y2="134.5"/><line fill="none" stroke="#ffa500" stroke-width="5.0" x1="31.0" x2="31.71" y1="141.0" y2="141.0"/><line fill="none" stroke="#ff4500" stroke-width="5.0" x1="31.0" x2="33.42" y1="147.5" y2="147.5"/><line fill="none" stroke="#0f0" stroke-width="5.0" x1="31.0" x2="35.13" y1="154.0" y2="154.0"/><line fill="none" stroke="#ffa500" stroke-width="5.0" x1="31.0" x2="41.97" y1="160.5" y2="160.5"/><line fill="none" stroke="#ffa500" stroke-width="5.0" x1="31.0" x2="52.23" y1="167.0" y2="167.0"/><line fill="none" stroke="#0f0" stroke-width="5.0" x1="31.0" x2="55.65" y1="173.5" y2="173.5"/><line fill="none" stroke="#ff4500" stroke-width="5.0" x1="31.0" x2="55.65" y1="180.0" y2="180.0"/><line fill="none" stroke="#0f0" stroke-width="5.0" x1="31.0" x2="57.36" y1="186.5" y2="186.5"/><line fill="none" stroke="#ffa500" stroke-width="5.0" x1="31.0" x2="60.78" y1="219.0" y2="219.0"/><line fill="none" stroke="#ffa500" stroke-width="5.0" x1="31.0" x2="60.78" y1="238.5" y2="238.5"/><line fill="none" stroke="#0f0" stroke-width="5.0" x1="31.0" x2="64.2" y1="245.0" y2="245.0"/><line fill="none" stroke="#0f0" stroke-width="5.0" x1="31.0" x2="71.04" y1="251.5" y2="251.5"/><line fill="none" stroke="#ffa500" stroke-width="5.0" x1="31.0" x2="72.75" y1="219.0" y2="219.0"/><line fill="none" stroke="#ffa500" stroke-width="5.0" x1="31.0" x2="76.17" y1="258.0" y2="258.0"/><line fill="none" stroke="#ffa500" stroke-width="5.0" x1="31.0" x2="79.59" y1="63.0" y2="63.0"/><line fill="none" stroke="#ff4500" stroke-width="5.0" x1="31.0" x2="83.01" y1="69.5" y2="69.5"/><line fill="none" stroke="#0f0" stroke-width="5.0" x1="31.0" x2="86.43" y1="76.0" y2="76.0"/><line fill="none" stroke="#0f0" stroke-width="5.0" x1="31.0" x2="88.14" y1="82.5" y2="82.5"/><line fill="none" stroke="#ff4500" stroke-width="5.0" x1="31.0" x2="91.56" y1="89.0" y2="89.0"/><line fill="none" stroke="#ff4500" stroke-width="5.0" x1="31.0" x2="91.56" y1="95.5" y2="95.5"/><line fill="none" stroke="#0f0" stroke-width="5.0" x1="31.0" x2="93.27" y1="264.5" y2="264.5"/><line fill="none" stroke="#0f0" stroke-width="5.0" x1="31.0" x2="93.27" y1="271.0" y2="271.0"/><line fill="none" stroke="#0f0" stroke-width="5.0" x1="31.0" x2="96.69" y1="277.5" y2="277.5"/><line fill="none" stroke="#0f0" stroke-width="5.0" x1="31.0" x2="96.69" y1="128.0" y2="128.0"/><line fill="none" stroke="#0f0" stroke-width="5.0" x1="31.0" x2="106.95" y1="199.5" y2="199.5"/><line fill="none" stroke="#ffa500" stroke-width="5.0" x1="31.0" x2="106.95" y1="206.0" y2="206.0"/><line fill="none" stroke="#0f0" stroke-width="5.0" x1="31.0" x2="106.95" y1="212.5" y2="212.5"/><line fill="none" stroke="#ffa500" stroke-width="5.0" x1="31.0" x2="108.66" y1="284.0" y2="284.0"/><line fill="none" stroke="#0f0" stroke-width="5.0" x1="31.0" x2="115.5" y1="102.0" y2="102.0"/><line fill="none" stroke="#0f0" stroke-width="5.0" x1="31.0" x2="115.5" y1="108.5" y2="108.5"/><line fill="none" stroke="#0f0" stroke-width="5.0" x1="36.13" x2="120.63" y1="115.0" y2="115.0"/><line fill="none" stroke="#ffa500" stroke-width="5.0" x1="36.13" x2="120.63" y1="121.5" y2="121.5"/><line fill="none" stroke="#ffa500" stroke-width="5.0" x1="37.84" x2="122.34" y1="232.0" y2="232.0"/><line fill="none" stroke="#ff4500" stroke-width="5.0" x1="41.26" x2="125.76" y1="134.5" y2="134.5"/><line fill="none" stroke="#ff4500" stroke-width="5.0" x1="51.52" x2="136.02" y1="141.0" y2="141.0"/><line fill="none" stroke="#ffa500" stroke-width="5.0" x1="51.52" x2="136.02" y1="147.5" y2="147.5"/><line fill="none" stroke="#ffa500" stroke-width="5.0" x1="51.52" x2="136.02" y1="154.0" y2="154.0"/><line fill="none" stroke="#ffa500" stroke-width="5.0" x1="53.23" x2="137.73" y1="160.5" y2="160.5"/><line fill="none" stroke="#ffa500" stroke-width="5.0" x1="54.94" x2="139.44" y1="167.0" y2="167.0"/><line fill="none" stroke="#ffa500" stroke-width="5.0" x1="54.94" x2="139.44" y1="173.5" y2="173.5"/><line fill="none" stroke="#ff4500" stroke-width="5.0" x1="60.07" x2="144.57" y1="180.0" y2="180.0"/><line fill="none" stroke="#ffa500" stroke-width="5.0" x1="66.91" x2="151.41" y1="238.5" y2="238.5"/><line fill="none" stroke="#ff4500" stroke-width="5.0" x1="72.04" x2="156.54" y1="245.0" y2="245.0"/><line fill="none" stroke="#ffa500" stroke-width="5.0" x1="73.75" x2="158.25" y1="251.5" y2="251.5"/><line fill="none" stroke="#ffa500" stroke-width="5.0" x1="78.88" x2="163.38" y1="258.0" y2="258.0"/><line fill="none" stroke="#ffa500" stroke-width="5.0" x1="90.85" x2="175.35" y1="63.0" y2="63.0"/><line fill="none" stroke="#ffa500" stroke-width="5.0" x1="92.56" x2="177.06" y1="69.5" y2="69.5"/><line fill="none" stroke="#ffa500" stroke-width="5.0" x1="92.56" x2="177.06" y1="76.0" y2="76.0"/><line fill="none" stroke="#0f0" stroke-width="5.0" x1="99.4" x2="183.9" y1="82.5" y2="82.5"/><line fill="none" stroke="#ffa500" stroke-width="5.0" x1="102.82" x2="187.32" y1="89.0" y2="89.0"/><line fill="none" stroke="#f00" stroke-width="5.0" x1="106.24" x2="190.74" y1="95.5" y2="95.5"/><line fill="none" stroke="#ffa500" stroke-width="5.0" x1="109.66" x2="194.16" y1="186.5" y2="186.5"/><line fill="none" stroke="#ffa500" stroke-width="5.0" x1="109.66" x2="194.16" y1="193.0" y2="193.0"/><line fill="none" stroke="#ff4500" stroke-width="5.0" x1="111.37" x2="195.87" y1="219.0" y2="219.0"/><line fill="none" stroke="#0f0" stroke-width="5.0" x1="116.5" x2="201.0" y1="225.5" y2="225.5"/><line fill="none" stroke="#0f0" stroke-width="5.0" x1="116.5" x2="201.0" y1="128.0" y2="128.0"/><line fill="none" stroke="#ffa500" stroke-width="5.0" x1="121.63" x2="206.13" y1="264.5" y2="264.5"/><line fill="none" stroke="#ffa500" stroke-width="5.0" x1="123.34" x2="207.84" y1="271.0" y2="271.0"/><line fill="none" stroke="#0f0" stroke-width="5.0" x1="125.05" x2="209.55" y1="277.5" y2="277.5"/><line fill="none" stroke="#ffa500" stroke-width="5.0" x1="131.89" x2="216.39" y1="199.5" y2="199.5"/><line fill="none" stroke="#0f0" stroke-width="5.0" x1="131.89" x2="216.39" y1="206.0" y2="206.0"/><line fill="none" stroke="#0f0" stroke-width="5.0" x1="138.73" x2="223.23" y1="212.5" y2="212.5"/><line fill="none" stroke="#ffa500" stroke-width="5.0" x1="147.28" x2="231.78" y1="173.5" y2="173.5"/><line fill="none" stroke="#0f0" stroke-width="5.0" x1="154.12" x2="238.62" y1="180.0" y2="180.0"/><line fill="none" stroke="#ff4500" stroke-width="5.0" x1="162.67" x2="247.17" y1="284.0" y2="284.0"/><line fill="none" stroke="#ffa500" stroke-width="5.0" x1="169.51" x2="254.01" y1="102.0" y2="102.0"/><line fill="none" stroke="#ff4500" stroke-width="5.0" x1="174.64" x2="259.14" y1="108.5" y2="108.5"/><line fill="none" stroke="#ffa500" stroke-width="5.0" x1="179.77" x2="264.27" y1="63.0" y2="63.0"/><line fill="none" stroke="#0f0" stroke-width="5.0" x1="179.77" x2="264.27" y1="69.5" y2="69.5"/><line fill="none" stroke="#ff4500" stroke-width="5.0" x1="183.19" x2="267.69" y1="76.0" y2="76.0"/><line fill="none" stroke="#0f0" stroke-width="5.0" x1="184.9" x2="269.4" y1="115.0" y2="115.0"/><line fill="none" stroke="#ffa500" stroke-width="5.0" x1="184.9" x2="269.4" y1="121.5" y2="121.5"/><line fill="none" stroke="#ffa500" stroke-width="5.0" x1="188.32" x2="272.82" y1="232.0" y2="232.0"/><line fill="none" stroke="#ffa500" stroke-width="5.0" x1="193.45" x2="277.95" y1="134.5" y2="134.5"/><line fill="none" stroke="#ffa500" stroke-width="5.0" x1="196.87" x2="281.37" y1="141.0" y2="141.0"/><line fill="none" stroke="#ffa500" stroke-width="5.0" x1="196.87" x2="281.37" y1="147.5" y2="147.5"/><line fill="none" stroke="#ffa500" stroke-width="5.0" x1="196.87" x2="281.37" y1="154.0" y2="154.0"/><line fill="none" stroke="#ffa500" stroke-width="5.0" x1="200.29" x2="284.79" y1="160.5" y2="160.5"/><line fill="none" stroke="#ff4500" stroke-width="5.0" x1="200.29" x2="284.79" y1="167.0" y2="167.0"/><line fill="none" stroke="#ff4500" stroke-width="5.0" x1="208.84" x2="293.34" y1="238.5" y2="238.5"/><line fill="none" stroke="#0f0" stroke-width="5.0" x1="208.84" x2="293.34" y1="245.0" y2="245.0"/><line fill="none" stroke="#f00" stroke-width="5.0" x1="213.97" x2="298.47" y1="251.5" y2="251.5"/><line fill="none" stroke="#ffa500" stroke-width="5.0" x1="217.39" x2="301.89" y1="258.0" y2="258.0"/><line fill="none" stroke="#ffa500" stroke-width="5.0" x1="222.52" x2="307.02" y1="82.5" y2="82.5"/><line fill="none" stroke="#0f0" stroke-width="5.0" x1="225.94" x2="310.44" y1="89.0" y2="89.0"/><line fill="none" stroke="#ffa500" stroke-width="5.0" x1="225.94" x2="310.44" y1="95.5" y2="95.5"/><line fill="none" stroke="#0f0" stroke-width="5.0" x1="225.94" x2="310.44" y1="186.5" y2="186.5"/><line fill="none" stroke="#0f0" stroke-width="5.0" x1="229.36" x2="313.86" y1="193.0" y2="193.0"/><line fill="none" stroke="#ff4500" stroke-width="5.0" x1="241.33" x2="325.83" y1="199.5" y2="199.5"/><line fill="none" stroke="#0f0" stroke-width="5.0" x1="246.46" x2="330.96" y1="206.0" y2="206.0"/><line fill="none" stroke="#ffa500" stroke-width="5.0" x1="246.46" x2="330.96" y1="212.5" y2="212.5"/><line fill="none" stroke="#0f0" stroke-width="5.0" x1="256.72" x2="341.22" y1="219.0" y2="219.0"/><line fill="none" stroke="#0f0" stroke-width="5.0" x1="256.72" x2="341.22" y1="225.5" y2="225.5"/><line fill="none" stroke="#0f0" stroke-width="5.0" x1="260.14" x2="344.64" y1="128.0" y2="128.0"/><line fill="none" stroke="#ff4500" stroke-width="5.0" x1="263.56" x2="348.06" y1="264.5" y2="264.5"/><line fill="none" stroke="#0f0" stroke-width="5.0" x1="266.98" x2="351.48" y1="63.0" y2="63.0"/><line fill="none" stroke="#0f0" stroke-width="5.0" x1="270.4" x2="354.9" y1="69.5" y2="69.5"/><line fill="none" stroke="#ff4500" stroke-width="5.0" x1="272.11" x2="356.61" y1="76.0" y2="76.0"/><line fill="none" stroke="#0f0" stroke-width="5.0" x1="272.11" x2="356.61" y1="271.0" y2="271.0"/><line fill="none" stroke="#ffa500" stroke-width="5.0" x1="277.24" x2="361.74" y1="277.5" y2="277.5"/><line fill="none" stroke="#ffa500" stroke-width="5.0" x1="285.79" x2="370.29" y1="173.5" y2="173.5"/><line fill="none" stroke="#0f0" stroke-width="5.0" x1="287.5" x2="372.0" y1="102.0" y2="102.0"/><line fill="none" stroke="#0f0" stroke-width="5.0" x1="287.5" x2="372.0" y1="108.5" y2="108.5"/><line fill="none" stroke="#0f0" stroke-width="5.0" x1="292.63" x2="377.13" y1="115.0" y2="115.0"/><line fill="none" stroke="#ffa500" stroke-width="5.0" x1="297.76" x2="382.26" y1="121.5" y2="121.5"/><line fill="none" stroke="#0f0" stroke-width="5.0" x1="304.6" x2="389.1" y1="180.0" y2="180.0"/><line fill="none" stroke="#ff4500" stroke-width="5.0" x1="306.31" x2="390.81" y1="134.5" y2="134.5"/><line fill="none" stroke="#ffa500" stroke-width="5.0" x1="308.02" x2="392.52" y1="141.0" y2="141.0"/><line fill="none" stroke="#ffa500" stroke-width="5.0" x1="318.28" x2="402.78" y1="147.5" y2="147.5"/><line fill="none" stroke="#ffa500" stroke-width="5.0" x1="321.7" x2="406.2" y1="154.0" y2="154.0"/><line fill="none" stroke="#0f0" stroke-width="5.0" x1="323.41" x2="407.91" y1="160.5" y2="160.5"/><line fill="none" stroke="#0f0" stroke-width="5.0" x1="325.12" x2="409.62" y1="167.0" y2="167.0"/><line fill="none" stroke="#ffa500" stroke-width="5.0" x1="325.12" x2="409.62" y1="284.0" y2="284.0"/><line fill="none" stroke="#ff4500" stroke-width="5.0" x1="331.96" x2="416.46" y1="232.0" y2="232.0"/><line fill="none" stroke="#ffa500" stroke-width="5.0" x1="331.96" x2="416.46" y1="186.5" y2="186.5"/><line fill="none" stroke="#f00" stroke-width="5.0" x1="333.67" x2="418.17" y1="193.0" y2="193.0"/><line fill="none" stroke="#0f0" stroke-width="5.0" x1="333.67" x2="418.17" y1="199.5" y2="199.5"/><line fill="none" stroke="#0f0" stroke-width="5.0" x1="333.67" x2="418.17" y1="206.0" y2="206.0"/><line fill="none" stroke="#0f0" stroke-width="5.0" x1="335.38" x2="419.88" y1="212.5" y2="212.5"/><line fill="none" stroke="#ff4500" stroke-width="5.0" x1="337.09" x2="421.59" y1="238.5" y2="238.5"/><line fill="none" stroke="#ff4500" stroke-width="5.0" x1="337.09" x2="421.59" y1="245.0" y2="245.0"/><line fill="none" stroke="#0f0" stroke-width="5.0" x1="338.8" x2="423.3" y1="251.5" y2="251.5"/><line fill="none" stroke="#0f0" stroke-width="5.0" x1="343.93" x2="428.43" y1="258.0" y2="258.0"/><line fill="none" stroke="#ff4500" stroke-width="5.0" x1="349.06" x2="433.56" y1="82.5" y2="82.5"/><line fill="none" stroke="#0f0" stroke-width="5.0" x1="349.06" x2="433.56" y1="89.0" y2="89.0"/><line fill="none" stroke="#ffa500" stroke-width="5.0" x1="350.77" x2="435.27" y1="95.5" y2="95.5"/><line fill="none" stroke="#0f0" stroke-width="5.0" x1="354.19" x2="438.69" y1="63.0" y2="63.0"/><line fill="none" stroke="#0f0" stroke-width="5.0" x1="364.45" x2="448.95" y1="69.5" y2="69.5"/><line fill="none" stroke="#ffa500" stroke-width="5.0" x1="364.45" x2="448.95" y1="76.0" y2="76.0"/><line fill="none" stroke="#ffa500" stroke-width="5.0" x1="364.45" x2="448.95" y1="219.0" y2="219.0"/><line fill="none" stroke="#ff4500" stroke-width="5.0" x1="374.71" x2="459.21" y1="225.5" y2="225.5"/><line fill="none" stroke="#0f0" stroke-width="5.0" x1="378.13" x2="462.63" y1="128.0" y2="128.0"/><line fill="none" stroke="#0f0" stroke-width="5.0" x1="379.84" x2="464.34" y1="102.0" y2="102.0"/><line fill="none" stroke="#0f0" stroke-width="5.0" x1="383.26" x2="467.76" y1="108.5" y2="108.5"/><line fill="none" stroke="#0f0" stroke-width="5.0" x1="384.97" x2="469.47" y1="115.0" y2="115.0"/><line fill="none" stroke="#ffa500" stroke-width="5.0" x1="395.23" x2="479.73" y1="121.5" y2="121.5"/><line fill="none" stroke="#ffa500" stroke-width="5.0" x1="396.94" x2="481.44" y1="264.5" y2="264.5"/><line fill="none" stroke="#ff4500" stroke-width="5.0" x1="398.65" x2="483.15" y1="134.5" y2="134.5"/><line fill="none" stroke="#ff4500" stroke-width="5.0" x1="402.07" x2="486.57" y1="141.0" y2="141.0"/><line fill="none" stroke="#0f0" stroke-width="5.0" x1="402.07" x2="486.57" y1="271.0" y2="271.0"/><line fill="none" stroke="#ff4500" stroke-width="5.0" x1="407.2" x2="491.7" y1="277.5" y2="277.5"/><line fill="none" stroke="#0f0" stroke-width="5.0" x1="407.2" x2="491.7" y1="173.5" y2="173.5"/><line fill="none" stroke="#ff4500" stroke-width="5.0" x1="412.33" x2="496.83" y1="167.0" y2="167.0"/><line fill="none" stroke="#ffa500" stroke-width="5.0" x1="427.72" x2="512.22" y1="180.0" y2="180.0"/><line fill="none" stroke="#ffa500" stroke-width="5.0" x1="434.56" x2="519.06" y1="147.5" y2="147.5"/><line fill="none" stroke="#ffa500" stroke-width="5.0" x1="436.27" x2="520.77" y1="186.5" y2="186.5"/><line fill="none" stroke="#ffa500" stroke-width="5.0" x1="439.69" x2="524.19" y1="193.0" y2="193.0"/><line fill="none" stroke="#ff4500" stroke-width="5.0" x1="441.4" x2="525.9" y1="63.0" y2="63.0"/><line fill="none" stroke="#0f0" stroke-width="5.0" x1="446.53" x2="531.03" y1="154.0" y2="154.0"/><line fill="none" stroke="#ffa500" stroke-width="5.0" x1="449.95" x2="534.45" y1="160.5" y2="160.5"/><line fill="none" stroke="#0f0" stroke-width="5.0" x1="449.95" x2="534.45" y1="82.5" y2="82.5"/><line fill="none" stroke="#ffa500" stroke-width="5.0" x1="449.95" x2="534.45" y1="89.0" y2="89.0"/><line fill="none" stroke="#0f0" stroke-width="5.0" x1="455.08" x2="539.58" y1="95.5" y2="95.5"/><line fill="none" stroke="#0f0" stroke-width="5.0" x1="455.08" x2="539.58" y1="284.0" y2="284.0"/><line fill="none" stroke="#0f0" stroke-width="5.0" x1="458.5" x2="543.0" y1="232.0" y2="232.0"/><line fill="none" stroke="#0f0" stroke-width="5.0" x1="460.21" x2="544.71" y1="199.5" y2="199.5"/><line fill="none" stroke="#ffa500" stroke-width="5.0" x1="463.63" x2="548.13" y1="206.0" y2="206.0"/><line fill="none" stroke="#ffa500" stroke-width="5.0" x1="467.05" x2="551.55" y1="128.0" y2="128.0"/><line fill="none" stroke="#0f0" stroke-width="5.0" x1="472.18" x2="556.68" y1="212.5" y2="212.5"/><line fill="none" stroke="#ffa500" stroke-width="5.0" x1="472.18" x2="556.68" y1="238.5" y2="238.5"/><line fill="none" stroke="#ffa500" stroke-width="5.0" x1="479.02" x2="563.52" y1="245.0" y2="245.0"/><line fill="none" stroke="#0f0" stroke-width="5.0" x1="480.73" x2="565.23" y1="251.5" y2="251.5"/><line fill="none" stroke="#ff4500" stroke-width="5.0" x1="509.8" x2="594.3" y1="258.0" y2="258.0"/><line fill="none" stroke="#ffa500" stroke-width="5.0" x1="525.19" x2="609.69" y1="167.0" y2="167.0"/><line fill="none" stroke="#ffa500" stroke-width="5.0" x1="525.19" x2="609.69" y1="173.5" y2="173.5"/><line fill="none" stroke="#ffa500" stroke-width="5.0" x1="526.9" x2="611.4" y1="180.0" y2="180.0"/><line fill="none" stroke="#0f0" stroke-width="5.0" x1="528.61" x2="613.11" y1="63.0" y2="63.0"/><line fill="none" stroke="#ffa500" stroke-width="5.0" x1="532.03" x2="616.53" y1="69.5" y2="69.5"/><line fill="none" stroke="#ff4500" stroke-width="5.0" x1="540.58" x2="625.08" y1="76.0" y2="76.0"/><line fill="none" stroke="#ffa500" stroke-width="5.0" x1="547.42" x2="631.92" y1="82.5" y2="82.5"/><line fill="none" stroke="#ff4500" stroke-width="5.0" x1="559.39" x2="643.89" y1="89.0" y2="89.0"/><line fill="none" stroke="#ffa500" stroke-width="5.0" x1="566.23" x2="650.73" y1="95.5" y2="95.5"/><line fill="none" stroke="#ffa500" stroke-width="5.0" x1="567.94" x2="652.44" y1="102.0" y2="102.0"/><line fill="none" stroke="#0f0" stroke-width="5.0" x1="573.07" x2="657.57" y1="108.5" y2="108.5"/><line fill="none" stroke="#0f0" stroke-width="5.0" x1="585.04" x2="669.54" y1="115.0" y2="115.0"/><line fill="none" stroke="#ffa500" stroke-width="5.0" x1="593.59" x2="678.09" y1="121.5" y2="121.5"/><line fill="none" stroke="#0f0" stroke-width="5.0" x1="608.98" x2="693.48" y1="128.0" y2="128.0"/><line fill="none" stroke="#0f0" stroke-width="5.0" x1="614.11" x2="698.61" y1="134.5" y2="134.5"/><line fill="none" stroke="#f00" stroke-width="5.0" x1="617.53" x2="702.03" y1="63.0" y2="63.0"/><line fill="none" stroke="#ffa500" stroke-width="5.0" x1="620.95" x2="705.45" y1="69.5" y2="69.5"/><line fill="none" stroke="#ffa500" stroke-width="5.0" x1="622.66" x2="707.16" y1="219.0" y2="219.0"/><line fill="none" stroke="#ffa500" stroke-width="5.0" x1="627.79" x2="712.29" y1="225.5" y2="225.5"/><line fill="none" stroke="#0f0" stroke-width="5.0" x1="632.92" x2="717.42" y1="264.5" y2="264.5"/><line fill="none" stroke="#ffa500" stroke-width="5.0" x1="636.34" x2="720.84" y1="141.0" y2="141.0"/><line fill="none" stroke="#ffa500" stroke-width="5.0" x1="639.76" x2="724.26" y1="271.0" y2="271.0"/><line fill="none" stroke="#ffa500" stroke-width="5.0" x1="639.76" x2="724.26" y1="277.5" y2="277.5"/><line fill="none" stroke="#ffa500" stroke-width="5.0" x1="644.89" x2="729.39" y1="147.5" y2="147.5"/><line fill="none" stroke="#0f0" stroke-width="5.0" x1="646.6" x2="731.1" y1="186.5" y2="186.5"/><line fill="none" stroke="#ffa500" stroke-width="5.0" x1="648.31" x2="732.81" y1="193.0" y2="193.0"/><line fill="none" stroke="#ffa500" stroke-width="5.0" x1="658.57" x2="743.07" y1="154.0" y2="154.0"/><line fill="none" stroke="#ffa500" stroke-width="5.0" x1="663.7" x2="748.2" y1="160.5" y2="160.5"/><line fill="none" stroke="#ffa500" stroke-width="5.0" x1="665.41" x2="749.91" y1="284.0" y2="284.0"/><line fill="none" stroke="#0f0" stroke-width="5.0" x1="668.83" x2="753.33" y1="232.0" y2="232.0"/><line fill="none" stroke="#ff4500" stroke-width="5.0" x1="668.83" x2="753.33" y1="199.5" y2="199.5"/><line fill="none" stroke="#ffa500" stroke-width="5.0" x1="673.96" x2="758.46" y1="167.0" y2="167.0"/><line fill="none" stroke="#0f0" stroke-width="5.0" x1="679.09" x2="763.59" y1="173.5" y2="173.5"/><line fill="none" stroke="#0f0" stroke-width="5.0" x1="682.51" x2="767.01" y1="180.0" y2="180.0"/><line fill="none" stroke="#0f0" stroke-width="5.0" x1="682.51" x2="767.01" y1="206.0" y2="206.0"/><line fill="none" stroke="#0f0" stroke-width="5.0" x1="682.51" x2="767.01" y1="212.5" y2="212.5"/><line fill="none" stroke="#0f0" stroke-width="5.0" x1="687.64" x2="772.14" y1="238.5" y2="238.5"/><line fill="none" stroke="#0f0" stroke-width="5.0" x1="692.77" x2="777.27" y1="245.0" y2="245.0"/><line fill="none" stroke="#0f0" stroke-width="5.0" x1="699.61" x2="784.11" y1="251.5" y2="251.5"/><line fill="none" stroke="#ffa500" stroke-width="5.0" x1="701.32" x2="785.82" y1="258.0" y2="258.0"/><line fill="none" stroke="#0f0" stroke-width="5.0" x1="701.32" x2="785.82" y1="76.0" y2="76.0"/><line fill="none" stroke="#ffa500" stroke-width="5.0" x1="709.87" x2="794.37" y1="63.0" y2="63.0"/><line fill="none" stroke="#ff4500" stroke-width="5.0" x1="718.42" x2="802.92" y1="69.5" y2="69.5"/><line fill="none" stroke="#ffa500" stroke-width="5.0" x1="725.26" x2="809.76" y1="82.5" y2="82.5"/><line fill="none" stroke="#ffa500" stroke-width="5.0" x1="726.97" x2="811.47" y1="89.0" y2="89.0"/><line fill="none" stroke="#f00" stroke-width="5.0" x1="726.97" x2="811.47" y1="95.5" y2="95.5"/><line fill="none" stroke="#ffa500" stroke-width="5.0" x1="728.68" x2="813.18" y1="102.0" y2="102.0"/><line fill="none" stroke="#ff4500" stroke-width="5.0" x1="732.1" x2="816.6" y1="108.5" y2="108.5"/><line fill="none" stroke="#ffa500" stroke-width="5.0" x1="733.81" x2="818.31" y1="115.0" y2="115.0"/><line fill="none" stroke="#ffa500" stroke-width="5.0" x1="737.23" x2="821.73" y1="121.5" y2="121.5"/><line fill="none" stroke="#ffa500" stroke-width="5.0" x1="738.94" x2="823.44" y1="128.0" y2="128.0"/><line fill="none" stroke="#ffa500" stroke-width="5.0" x1="740.65" x2="825.15" y1="134.5" y2="134.5"/><line fill="none" stroke="#0f0" stroke-width="5.0" x1="754.33" x2="838.83" y1="219.0" y2="219.0"/><line fill="none" stroke="#ffa500" stroke-width="5.0" x1="757.75" x2="842.25" y1="141.0" y2="141.0"/><line fill="none" stroke="#0f0" stroke-width="5.0" x1="761.17" x2="845.67" y1="147.5" y2="147.5"/><line fill="none" stroke="#ffa500" stroke-width="5.0" x1="762.88" x2="847.38" y1="154.0" y2="154.0"/><line fill="none" stroke="#0f0" stroke-width="5.0" x1="762.88" x2="847.38" y1="160.5" y2="160.5"/><line fill="none" stroke="#0f0" stroke-width="5.0" x1="762.88" x2="847.38" y1="167.0" y2="167.0"/><line fill="none" stroke="#ffa500" stroke-width="5.0" x1="764.59" x2="849.09" y1="225.5" y2="225.5"/><line fill="none" stroke="#ff4500" stroke-width="5.0" x1="766.3" x2="850.8" y1="264.5" y2="264.5"/><line fill="none" stroke="#f00" stroke-width="5.0" x1="766.3" x2="850.8" y1="186.5" y2="186.5"/><line fill="none" stroke="#ffa500" stroke-width="5.0" x1="778.27" x2="862.77" y1="193.0" y2="193.0"/><line fill="none" stroke="#ffa500" stroke-width="5.0" x1="783.4" x2="867.9" y1="199.5" y2="199.5"/><line fill="none" stroke="#ffa500" stroke-width="5.0" x1="788.53" x2="873.03" y1="206.0" y2="206.0"/><line fill="none" stroke="#0f0" stroke-width="5.0" x1="791.95" x2="876.45" y1="212.5" y2="212.5"/><line fill="none" stroke="#ffa500" stroke-width="5.0" x1="791.95" x2="876.45" y1="271.0" y2="271.0"/><line fill="none" stroke="#f00" stroke-width="5.0" x1="793.66" x2="878.16" y1="277.5" y2="277.5"/><line fill="none" stroke="#ffa500" stroke-width="5.0" x1="797.08" x2="881.58" y1="63.0" y2="63.0"/><line fill="none" stroke="#ffa500" stroke-width="5.0" x1="803.92" x2="885.0" y1="284.0" y2="284.0"/><line fill="none" stroke="#0f0" stroke-width="5.0" x1="803.92" x2="885.0" y1="76.0" y2="76.0"/><line fill="none" stroke="#ffa500" stroke-width="5.0" x1="803.92" x2="885.0" y1="232.0" y2="232.0"/><line fill="none" stroke="#0f0" stroke-width="5.0" x1="807.34" x2="885.0" y1="173.5" y2="173.5"/><line fill="none" stroke="#0f0" stroke-width="5.0" x1="809.05" x2="885.0" y1="180.0" y2="180.0"/><line fill="none" stroke="#ff4500" stroke-width="5.0" x1="814.18" x2="885.0" y1="238.5" y2="238.5"/><line fill="none" stroke="#ffa500" stroke-width="5.0" x1="821.02" x2="885.0" y1="108.5" y2="108.5"/><line fill="none" stroke="#0f0" stroke-width="5.0" x1="831.28" x2="885.0" y1="115.0" y2="115.0"/><line fill="none" stroke="#0f0" stroke-width="5.0" x1="844.96" x2="885.0" y1="121.5" y2="121.5"/><line fill="none" stroke="#ffa500" stroke-width="5.0" x1="853.51" x2="885.0" y1="128.0" y2="128.0"/><line fill="none" stroke="#ffa500" stroke-width="5.0" x1="858.64" x2="885.0" y1="134.5" y2="134.5"/><line fill="none" stroke="#ffa500" stroke-width="5.0" x1="860.35" x2="885.0" y1="141.0" y2="141.0"/><line fill="none" stroke="#ffa500" stroke-width="5.0" x1="865.48" x2="885.0" y1="147.5" y2="147.5"/><line fill="none" stroke="#ffa500" stroke-width="5.0" x1="867.19" x2="885.0" y1="154.0" y2="154.0"/><line fill="none" stroke="#0f0" stroke-width="5.0" x1="870.61" x2="885.0" y1="160.5" y2="160.5"/><line fill="none" stroke="#ffa500" stroke-width="5.0" x1="870.61" x2="885.0" y1="167.0" y2="167.0"/><line fill="none" stroke="#0f0" stroke-width="5.0" x1="872.32" x2="885.0" y1="245.0" y2="245.0"/><line fill="none" stroke="#ffa500" stroke-width="5.0" x1="874.03" x2="885.0" y1="251.5" y2="251.5"/><line fill="none" stroke="#0f0" stroke-width="5.0" x1="875.74" x2="885.0" y1="186.5" y2="186.5"/><line fill="none" stroke="#0f0" stroke-width="5.0" x1="879.16" x2="885.0" y1="193.0" y2="193.0"/><line fill="none" stroke="#0f0" stroke-width="5.0" x1="882.58" x2="885.0" y1="199.5" y2="199.5"/><line fill="none" stroke="#0f0" stroke-width="5.0" x1="886.0" x2="885.0" y1="63.0" y2="63.0"/></svg>