<?xml version="1.0" ?><!DOCTYPE svg  PUBLIC '-//W3C//DTD SVG 1.1//EN'  'http://www.w3.org/Graphics/SVG/1.1/DTD/svg11.dtd'><svg height="510.000" viewBox="-1.000 2.000 917.000 510.000" width="917.000" xmlns="http://www.w3.org/2000/svg"><line fill="none" stroke="#0f0" stroke-width="20.0" x1="30.0" x2="885.0" y1="50.0" y2="50.0"/><text fill="#000" font-family=".SF NS Text" font-size="13.0pt" stroke-width="0.0" text-anchor="middle" x="29.5" y="25">2950</text><line fill="none" stroke="#000" x1="29.5" x2="29.5" y1="500.0" y2="30.0"/><text fill="#000" font-family=".SF NS Text" font-size="13.0pt" stroke-width="0.0" text-anchor="middle" x="115.0" y="25">3000</text><line fill="none" stroke="#000" x1="115.0" x2="115.0" y1="500.0" y2="30.0"/><text fill="#000" font-family=".SF NS Text" font-size="13.0pt" stroke-width="0.0" text-anchor="middle" x="200.5" y="25">3050</text><line fill="none" stroke="#000" x1="200.5" x2="200.5" y1="500.0" y2="30.0"/><text fill="#000" font-family=".SF NS Text" font-size="13.0pt" stroke-width="0.0" text-anchor="middle" x="286.0" y="25">3100</text><line fill="none" stroke="#000" x1="286.0" x2="286.0" y1="500.0" y2="30.0"/><text fill="#000" font-family=".SF NS Text" font-size="13.0pt" stroke-width="0.0" text-anchor="middle" x="371.5" y="25">3150</text><line fill="none" stroke="#000" x1="371.5" x2="371.5" y1="500.0" y2="30.0"/><text fill="#000" font-family=".SF NS Text" font-size="13.0pt" stroke-width="0.0" text-anchor="middle" x="457.0" y="25">3200</text><line fill="none" stroke="#000" x1="457.0" x2="457.0" y1="500.0" y2="30.0"/><text fill="#000" font-family=".SF NS Text" font-size="13.0pt" stroke-width="0.0" text-anchor="middle" x="542.5" y="25">3250</text><line fill="none" stroke="#000" x1="542.5" x2="542.5" y1="500.0" y2="30.0"/><text fill="#000" font-family=".SF NS Text" font-size="13.0pt" stroke-width="0.0" text-anchor="middle" x="628.0" y="25">3300</text><line fill="none" stroke="#000" x1="628.0" x2="628.0" y1="500.0" y2="30.0"/><text fill="#000" font-family=".SF NS Text" font-size="13.0pt" stroke-width="0.0" text-anchor="middle" x="713.5" y="25">3350</text><line fill="none" stroke="#000" x1="713.5" x2="713.5" y1="500.0" y2="30.0"/><text fill="#000" font-family=".SF NS Text" font-size="13.0pt" stroke-width="0.0" text-anchor="middle" x="799.0" y="25">3400</text><line fill="none" stroke="#000" x1="799.0" x2="799.0" y1="500.0" y2="30.0"/><text fill="#000" font-family=".SF NS Text" font-size="13.0pt" stroke-width="0.0" text-anchor="middle" x="884.5" y="25">3450</text><line fill="none" stroke="#000" x1="884.5" x2="884.5" y1="500.0" y2="30.0"/><line fill="none" stroke="#ffa500" stroke-width="5.0" x1="31.0" x2="30.0" y1="108.5" y2="108.5"/><line fill="none" stroke="#0f0" stroke-width="5.0" x1="31.0" x2="36.84" y1="115.0" y2="115.0"/><line fill="none" stroke="#0f0" stroke-width="5.0" x1="31.0" x2="50.52" y1="121.5" y2="121.5"/><line fill="none" stroke="#0f0" stroke-width="5.0" x1="31.0" x2="55.65" y1="128.0" y2="128.0"/><line fill="none" stroke="#ff4500" stroke-width="5.0" x1="31.0" x2="57.36" y1="134.5" y2="134.5"/><line fill="none" stroke="#ff4500" stroke-width="5.0" x1="31.0" x2="60.78" y1="141.0" y2="141.0"/><line fill="none" stroke="#ffa500" stroke-width="5.0" x1="31.0" x2="84.72" y1="63.0" y2="63.0"/><line fill="none" stroke="#ffa500" stroke-width="5.0" x1="31.0" x2="94.98" y1="69.5" y2="69.5"/><line fill="none" stroke="#0f0" stroke-width="5.0" x1="31.0" x2="98.4" y1="76.0" y2="76.0"/><line fill="none" stroke="#ffa500" stroke-width="5.0" x1="31.0" x2="100.11" y1="82.5" y2="82.5"/><line fill="none" stroke="#f00" stroke-width="5.0" x1="31.0" x2="105.24" y1="89.0" y2="89.0"/><line fill="none" stroke="#0f0" stroke-width="5.0" x1="34.42" x2="118.92" y1="95.5" y2="95.5"/><line fill="none" stroke="#0f0" stroke-width="5.0" x1="34.42" x2="118.92" y1="102.0" y2="102.0"/><line fill="none" stroke="#ffa500" stroke-width="5.0" x1="37.84" x2="122.34" y1="108.5" y2="108.5"/><line fill="none" stroke="#0f0" stroke-width="5.0" x1="39.55" x2="124.05" y1="115.0" y2="115.0"/><line fill="none" stroke="#ffa500" stroke-width="5.0" x1="42.97" x2="127.47" y1="121.5" y2="121.5"/><line fill="none" stroke="#ffa500" stroke-width="5.0" x1="44.68" x2="129.18" y1="128.0" y2="128.0"/><line fill="none" stroke="#0f0" stroke-width="5.0" x1="58.36" x2="142.86" y1="134.5" y2="134.5"/><line fill="none" stroke="#0f0" stroke-width="5.0" x1="65.2" x2="149.7" y1="141.0" y2="141.0"/><line fill="none" stroke="#f00" stroke-width="5.0" x1="65.2" x2="149.7" y1="147.5" y2="147.5"/><line fill="none" stroke="#0f0" stroke-width="5.0" x1="70.33" x2="154.83" y1="154.0" y2="154.0"/><line fill="none" stroke="#0f0" stroke-width="5.0" x1="72.04" x2="156.54" y1="160.5" y2="160.5"/><line fill="none" stroke="#0f0" stroke-width="5.0" x1="75.46" x2="159.96" y1="167.0" y2="167.0"/><line fill="none" stroke="#ffa500" stroke-width="5.0" x1="77.17" x2="161.67" y1="173.5" y2="173.5"/><line fill="none" stroke="#f00" stroke-width="5.0" x1="82.3" x2="166.8" y1="180.0" y2="180.0"/><line fill="none" stroke="#ffa500" stroke-width="5.0" x1="82.3" x2="166.8" y1="186.5" y2="186.5"/><line fill="none" stroke="#0f0" stroke-width="5.0" x1="85.72" x2="170.22" y1="193.0" y2="193.0"/><line fill="none" stroke="#f00" stroke-width="5.0" x1="87.43" x2="171.93" y1="63.0" y2="63.0"/><line fill="none" stroke="#ff4500" stroke-width="5.0" x1="92.56" x2="177.06" y1="173.5" y2="173.5"/><line fill="none" stroke="#0f0" stroke-width="5.0" x1="92.56" x2="177.06" y1="180.0" y2="180.0"/><line fill="none" stroke="#0f0" stroke-width="5.0" x1="95.98" x2="180.48" y1="186.5" y2="186.5"/><line fill="none" stroke="#0f0" stroke-width="5.0" x1="101.11" x2="185.61" y1="193.0" y2="193.0"/><line fill="none" stroke="#ffa500" stroke-width="5.0" x1="104.53" x2="189.03" y1="199.5" y2="199.5"/><line fill="none" stroke="#ffa500" stroke-width="5.0" x1="106.24" x2="190.74" y1="206.0" y2="206.0"/><line fill="none" stroke="#0f0" stroke-width="5.0" x1="113.08" x2="197.58" y1="212.5" y2="212.5"/><line fill="none" stroke="#0f0" stroke-width="5.0" x1="116.5" x2="201.0" y1="219.0" y2="219.0"/><line fill="none" stroke="#ffa500" stroke-width="5.0" x1="125.05" x2="209.55" y1="69.5" y2="69.5"/><line fill="none" stroke="#ffa500" stroke-width="5.0" x1="128.47" x2="212.97" y1="76.0" y2="76.0"/><line fill="none" stroke="#0f0" stroke-width="5.0" x1="133.6" x2="218.1" y1="82.5" y2="82.5"/><line fill="none" stroke="#ffa500" stroke-width="5.0" x1="138.73" x2="223.23" y1="89.0" y2="89.0"/><line fill="none" stroke="#ffa500" stroke-width="5.0" x1="138.73" x2="223.23" y1="95.5" y2="95.5"/><line fill="none" stroke="#ff4500" stroke-width="5.0" x1="142.15" x2="226.65" y1="102.0" y2="102.0"/><line fill="none" stroke="#ffa500" stroke-width="5.0" x1="142.15" x2="226.65" y1="225.5" y2="225.5"/><line fill="none" stroke="#ffa500" stroke-width="5.0" x1="143.86" x2="228.36" y1="232.0" y2="232.0"/><line fill="none" stroke="#ffa500" stroke-width="5.0" x1="145.57" x2="230.07" y1="108.5" y2="108.5"/><line fill="none" stroke="#ffa500" stroke-width="5.0" x1="145.57" x2="230.07" y1="238.5" y2="238.5"/><line fill="none" stroke="#ffa500" stroke-width="5.0" x1="147.28" x2="231.78" y1="245.0" y2="245.0"/><line fill="none" stroke="#f00" stroke-width="5.0" x1="148.99" x2="233.49" y1="251.5" y2="251.5"/><line fill="none" stroke="#ff4500" stroke-width="5.0" x1="152.41" x2="236.91" y1="115.0" y2="115.0"/><line fill="none" stroke="#0f0" stroke-width="5.0" x1="172.93" x2="257.43" y1="121.5" y2="121.5"/><line fill="none" stroke="#ffa500" stroke-width="5.0" x1="174.64" x2="259.14" y1="63.0" y2="63.0"/><line fill="none" stroke="#ffa500" stroke-width="5.0" x1="178.06" x2="262.56" y1="128.0" y2="128.0"/><line fill="none" stroke="#0f0" stroke-width="5.0" x1="179.77" x2="264.27" y1="134.5" y2="134.5"/><line fill="none" stroke="#0f0" stroke-width="5.0" x1="179.77" x2="264.27" y1="141.0" y2="141.0"/><line fill="none" stroke="#ff4500" stroke-width="5.0" x1="190.03" x2="274.53" y1="147.5" y2="147.5"/><line fill="none" stroke="#ffa500" stroke-width="5.0" x1="190.03" x2="274.53" y1="154.0" y2="154.0"/><line fill="none" stroke="#ffa500" stroke-width="5.0" x1="193.45" x2="277.95" y1="160.5" y2="160.5"/><line fill="none" stroke="#0f0" stroke-width="5.0" x1="198.58" x2="283.08" y1="167.0" y2="167.0"/><line fill="none" stroke="#0f0" stroke-width="5.0" x1="200.29" x2="284.79" y1="173.5" y2="173.5"/><line fill="none" stroke="#ffa500" stroke-width="5.0" x1="202.0" x2="286.5" y1="180.0" y2="180.0"/><line fill="none" stroke="#ffa500" stroke-width="5.0" x1="205.42" x2="289.92" y1="186.5" y2="186.5"/><line fill="none" stroke="#ffa500" stroke-width="5.0" x1="207.13" x2="291.63" y1="193.0" y2="193.0"/><line fill="none" stroke="#0f0" stroke-width="5.0" x1="212.26" x2="296.76" y1="199.5" y2="199.5"/><line fill="none" stroke="#0f0" stroke-width="5.0" x1="212.26" x2="296.76" y1="206.0" y2="206.0"/><line fill="none" stroke="#0f0" stroke-width="5.0" x1="215.68" x2="300.18" y1="212.5" y2="212.5"/><line fill="none" stroke="#ff4500" stroke-width="5.0" x1="222.52" x2="307.02" y1="219.0" y2="219.0"/><line fill="none" stroke="#ffa500" stroke-width="5.0" x1="222.52" x2="307.02" y1="69.5" y2="69.5"/><line fill="none" stroke="#ff4500" stroke-width="5.0" x1="224.23" x2="308.73" y1="76.0" y2="76.0"/><line fill="none" stroke="#0f0" stroke-width="5.0" x1="229.36" x2="313.86" y1="82.5" y2="82.5"/><line fill="none" stroke="#f00" stroke-width="5.0" x1="232.78" x2="317.28" y1="89.0" y2="89.0"/><line fill="none" stroke="#ffa500" stroke-width="5.0" x1="234.49" x2="318.99" y1="95.5" y2="95.5"/><line fill="none" stroke="#0f0" stroke-width="5.0" x1="234.49" x2="318.99" y1="102.0" y2="102.0"/><line fill="none" stroke="#ff4500" stroke-width="5.0" x1="234.49" x2="318.99" y1="225.5" y2="225.5"/><line fill="none" stroke="#ff4500" stroke-width="5.0" x1="236.2" x2="320.7" y1="232.0" y2="232.0"/><line fill="none" stroke="#ff4500" stroke-width="5.0" x1="236.2" x2="320.7" y1="108.5" y2="108.5"/><line fill="none" stroke="#ffa500" stroke-width="5.0" x1="236.2" x2="320.7" y1="238.5" y2="238.5"/><line fill="none" stroke="#ffa500" stroke-width="5.0" x1="241.33" x2="325.83" y1="245.0" y2="245.0"/><line fill="none" stroke="#ffa500" stroke-width="5.0" x1="241.33" x2="325.83" y1="251.5" y2="251.5"/><line fill="none" stroke="#0f0" stroke-width="5.0" x1="241.33" x2="325.83" y1="115.0" y2="115.0"/><line fill="none" stroke="#ff4500" stroke-width="5.0" x1="243.04" x2="327.54" y1="258.0" y2="258.0"/><line fill="none" stroke="#0f0" stroke-width="5.0" x1="244.75" x2="329.25" y1="264.5" y2="264.5"/><line fill="none" stroke="#ff4500" stroke-width="5.0" x1="244.75" x2="329.25" y1="271.0" y2="271.0"/><line fill="none" stroke="#ffa500" stroke-width="5.0" x1="248.17" x2="332.67" y1="277.5" y2="277.5"/><line fill="none" stroke="#ffa500" stroke-width="5.0" x1="253.3" x2="337.8" y1="284.0" y2="284.0"/><line fill="none" stroke="#ff4500" stroke-width="5.0" x1="258.43" x2="342.93" y1="290.5" y2="290.5"/><line fill="none" stroke="#0f0" stroke-width="5.0" x1="260.14" x2="344.64" y1="121.5" y2="121.5"/><line fill="none" stroke="#ffa500" stroke-width="5.0" x1="265.27" x2="349.77" y1="63.0" y2="63.0"/><line fill="none" stroke="#ff4500" stroke-width="5.0" x1="268.69" x2="353.19" y1="128.0" y2="128.0"/><line fill="none" stroke="#ff4500" stroke-width="5.0" x1="270.4" x2="354.9" y1="134.5" y2="134.5"/><line fill="none" stroke="#0f0" stroke-width="5.0" x1="270.4" x2="354.9" y1="141.0" y2="141.0"/><line fill="none" stroke="#0f0" stroke-width="5.0" x1="273.82" x2="358.32" y1="297.0" y2="297.0"/><line fill="none" stroke="#0f0" stroke-width="5.0" x1="273.82" x2="358.32" y1="303.5" y2="303.5"/><line fill="none" stroke="#ff4500" stroke-width="5.0" x1="285.79" x2="370.29" y1="147.5" y2="147.5"/><line fill="none" stroke="#ff4500" stroke-width="5.0" x1="285.79" x2="370.29" y1="154.0" y2="154.0"/><line fill="none" stroke="#0f0" stroke-width="5.0" x1="287.5" x2="372.0" y1="160.5" y2="160.5"/><line fill="none" stroke="#ff4500" stroke-width="5.0" x1="289.21" x2="373.71" y1="167.0" y2="167.0"/><line fill="none" stroke="#0f0" stroke-width="5.0" x1="294.34" x2="378.84" y1="173.5" y2="173.5"/><line fill="none" stroke="#ffa500" stroke-width="5.0" x1="297.76" x2="382.26" y1="180.0" y2="180.0"/><line fill="none" stroke="#ff4500" stroke-width="5.0" x1="302.89" x2="387.39" y1="186.5" y2="186.5"/><line fill="none" stroke="#0f0" stroke-width="5.0" x1="302.89" x2="387.39" y1="193.0" y2="193.0"/><line fill="none" stroke="#ffa500" stroke-width="5.0" x1="304.6" x2="389.1" y1="199.5" y2="199.5"/><line fill="none" stroke="#f00" stroke-width="5.0" x1="306.31" x2="390.81" y1="206.0" y2="206.0"/><line fill="none" stroke="#0f0" stroke-width="5.0" x1="308.02" x2="392.52" y1="212.5" y2="212.5"/><line fill="none" stroke="#ffa500" stroke-width="5.0" x1="311.44" x2="395.94" y1="69.5" y2="69.5"/><line fill="none" stroke="#0f0" stroke-width="5.0" x1="316.57" x2="401.07" y1="219.0" y2="219.0"/><line fill="none" stroke="#ffa500" stroke-width="5.0" x1="318.28" x2="402.78" y1="76.0" y2="76.0"/><line fill="none" stroke="#ff4500" stroke-width="5.0" x1="318.28" x2="402.78" y1="82.5" y2="82.5"/><line fill="none" stroke="#0f0" stroke-width="5.0" x1="319.99" x2="404.49" y1="89.0" y2="89.0"/><line fill="none" stroke="#ffa500" stroke-width="5.0" x1="321.7" x2="406.2" y1="95.5" y2="95.5"/><line fill="none" stroke="#ff4500" stroke-width="5.0" x1="321.7" x2="406.2" y1="102.0" y2="102.0"/><line fill="none" stroke="#0f0" stroke-width="5.0" x1="323.41" x2="407.91" y1="225.5" y2="225.5"/><line fill="none" stroke="#ffa500" stroke-width="5.0" x1="328.54" x2="413.04" y1="108.5" y2="108.5"/><line fill="none" stroke="#f00" stroke-width="5.0" x1="330.25" x2="414.75" y1="232.0" y2="232.0"/><line fill="none" stroke="#ffa500" stroke-width="5.0" x1="333.67" x2="418.17" y1="238.5" y2="238.5"/><line fill="none" stroke="#ffa500" stroke-width="5.0" x1="335.38" x2="419.88" y1="245.0" y2="245.0"/><line fill="none" stroke="#0f0" stroke-width="5.0" x1="335.38" x2="419.88" y1="251.5" y2="251.5"/><line fill="none" stroke="#f00" stroke-width="5.0" x1="338.8" x2="423.3" y1="258.0" y2="258.0"/><line fill="none" stroke="#ffa500" stroke-width="5.0" x1="338.8" x2="423.3" y1="264.5" y2="264.5"/><line fill="none" stroke="#ffa500" stroke-width="5.0" x1="338.8" x2="423.3" y1="271.0" y2="271.0"/><line fill="none" stroke="#0f0" stroke-width="5.0" x1="343.93" x2="428.43" y1="277.5" y2="277.5"/><line fill="none" stroke="#ffa500" stroke-width="5.0" x1="343.93" x2="428.43" y1="284.0" y2="284.0"/><line fill="none" stroke="#ff4500" stroke-width="5.0" x1="343.93" x2="428.43" y1="115.0" y2="115.0"/><line fill="none" stroke="#ffa500" stroke-width="5.0" x1="345.64" x2="430.14" y1="290.5" y2="290.5"/><line fill="none" stroke="#0f0" stroke-width="5.0" x1="347.35" x2="431.85" y1="121.5" y2="121.5"/><line fill="none" stroke="#ff4500" stroke-width="5.0" x1="347.35" x2="431.85" y1="310.0" y2="310.0"/><line fill="none" stroke="#ffa500" stroke-width="5.0" x1="355.9" x2="440.4" y1="63.0" y2="63.0"/><line fill="none" stroke="#0f0" stroke-width="5.0" x1="357.61" x2="442.11" y1="128.0" y2="128.0"/><line fill="none" stroke="#0f0" stroke-width="5.0" x1="361.03" x2="445.53" y1="134.5" y2="134.5"/><line fill="none" stroke="#0f0" stroke-width="5.0" x1="361.03" x2="445.53" y1="141.0" y2="141.0"/><line fill="none" stroke="#0f0" stroke-width="5.0" x1="366.16" x2="450.66" y1="297.0" y2="297.0"/><line fill="none" stroke="#ffa500" stroke-width="5.0" x1="369.58" x2="454.08" y1="303.5" y2="303.5"/><line fill="none" stroke="#ff4500" stroke-width="5.0" x1="371.29" x2="455.79" y1="316.5" y2="316.5"/><line fill="none" stroke="#f00" stroke-width="5.0" x1="373.0" x2="457.5" y1="147.5" y2="147.5"/><line fill="none" stroke="#0f0" stroke-width="5.0" x1="374.71" x2="459.21" y1="154.0" y2="154.0"/><line fill="none" stroke="#0f0" stroke-width="5.0" x1="383.26" x2="467.76" y1="160.5" y2="160.5"/><line fill="none" stroke="#ffa500" stroke-width="5.0" x1="390.1" x2="474.6" y1="167.0" y2="167.0"/><line fill="none" stroke="#0f0" stroke-width="5.0" x1="391.81" x2="476.31" y1="173.5" y2="173.5"/><line fill="none" stroke="#ffa500" stroke-width="5.0" x1="396.94" x2="481.44" y1="180.0" y2="180.0"/><line fill="none" stroke="#0f0" stroke-width="5.0" x1="400.36" x2="484.86" y1="186.5" y2="186.5"/><line fill="none" stroke="#ffa500" stroke-width="5.0" x1="407.2" x2="491.7" y1="193.0" y2="193.0"/><line fill="none" stroke="#f00" stroke-width="5.0" x1="407.2" x2="491.7" y1="199.5" y2="199.5"/><line fill="none" stroke="#ff4500" stroke-width="5.0" x1="414.04" x2="498.54" y1="206.0" y2="206.0"/><line fill="none" stroke="#ffa500" stroke-width="5.0" x1="415.75" x2="500.25" y1="212.5" y2="212.5"/><line fill="none" stroke="#ffa500" stroke-width="5.0" x1="417.46" x2="501.96" y1="69.5" y2="69.5"/><line fill="none" stroke="#0f0" stroke-width="5.0" x1="419.17" x2="503.67" y1="219.0" y2="219.0"/><line fill="none" stroke="#0f0" stroke-width="5.0" x1="419.17" x2="503.67" y1="76.0" y2="76.0"/><line fill="none" stroke="#0f0" stroke-width="5.0" x1="424.3" x2="508.8" y1="82.5" y2="82.5"/><line fill="none" stroke="#ff4500" stroke-width="5.0" x1="426.01" x2="510.51" y1="89.0" y2="89.0"/><line fill="none" stroke="#0f0" stroke-width="5.0" x1="431.14" x2="515.64" y1="95.5" y2="95.5"/><line fill="none" stroke="#ffa500" stroke-width="5.0" x1="431.14" x2="515.64" y1="102.0" y2="102.0"/><line fill="none" stroke="#ffa500" stroke-width="5.0" x1="431.14" x2="515.64" y1="225.5" y2="225.5"/><line fill="none" stroke="#ffa500" stroke-width="5.0" x1="431.14" x2="515.64" y1="232.0" y2="232.0"/><line fill="none" stroke="#0f0" stroke-width="5.0" x1="436.27" x2="520.77" y1="238.5" y2="238.5"/><line fill="none" stroke="#ffa500" stroke-width="5.0" x1="441.4" x2="525.9" y1="245.0" y2="245.0"/><line fill="none" stroke="#ffa500" stroke-width="5.0" x1="444.82" x2="529.32" y1="63.0" y2="63.0"/><line fill="none" stroke="#ff4500" stroke-width="5.0" x1="444.82" x2="529.32" y1="108.5" y2="108.5"/><line fill="none" stroke="#ffa500" stroke-width="5.0" x1="446.53" x2="531.03" y1="251.5" y2="251.5"/><line fill="none" stroke="#0f0" stroke-width="5.0" x1="448.24" x2="532.74" y1="258.0" y2="258.0"/><line fill="none" stroke="#ffa500" stroke-width="5.0" x1="449.95" x2="534.45" y1="264.5" y2="264.5"/><line fill="none" stroke="#ffa500" stroke-width="5.0" x1="453.37" x2="537.87" y1="271.0" y2="271.0"/><line fill="none" stroke="#0f0" stroke-width="5.0" x1="455.08" x2="539.58" y1="115.0" y2="115.0"/><line fill="none" stroke="#ffa500" stroke-width="5.0" x1="456.79" x2="541.29" y1="277.5" y2="277.5"/><line fill="none" stroke="#0f0" stroke-width="5.0" x1="460.21" x2="544.71" y1="284.0" y2="284.0"/><line fill="none" stroke="#0f0" stroke-width="5.0" x1="467.05" x2="551.55" y1="121.5" y2="121.5"/><line fill="none" stroke="#0f0" stroke-width="5.0" x1="467.05" x2="551.55" y1="128.0" y2="128.0"/><line fill="none" stroke="#0f0" stroke-width="5.0" x1="472.18" x2="556.68" y1="134.5" y2="134.5"/><line fill="none" stroke="#0f0" stroke-width="5.0" x1="473.89" x2="558.39" y1="141.0" y2="141.0"/><line fill="none" stroke="#ffa500" stroke-width="5.0" x1="479.02" x2="563.52" y1="147.5" y2="147.5"/><line fill="none" stroke="#0f0" stroke-width="5.0" x1="487.57" x2="572.07" y1="154.0" y2="154.0"/><line fill="none" stroke="#0f0" stroke-width="5.0" x1="487.57" x2="572.07" y1="160.5" y2="160.5"/><line fill="none" stroke="#0f0" stroke-width="5.0" x1="487.57" x2="572.07" y1="167.0" y2="167.0"/><line fill="none" stroke="#ff4500" stroke-width="5.0" x1="492.7" x2="577.2" y1="173.5" y2="173.5"/><line fill="none" stroke="#0f0" stroke-width="5.0" x1="492.7" x2="577.2" y1="180.0" y2="180.0"/><line fill="none" stroke="#0f0" stroke-width="5.0" x1="499.54" x2="584.04" y1="186.5" y2="186.5"/><line fill="none" stroke="#ffa500" stroke-width="5.0" x1="501.25" x2="585.75" y1="193.0" y2="193.0"/><line fill="none" stroke="#0f0" stroke-width="5.0" x1="511.51" x2="596.01" y1="199.5" y2="199.5"/><line fill="none" stroke="#ffa500" stroke-width="5.0" x1="513.22" x2="597.72" y1="206.0" y2="206.0"/><line fill="none" stroke="#0f0" stroke-width="5.0" x1="514.93" x2="599.43" y1="212.5" y2="212.5"/><line fill="none" stroke="#ffa500" stroke-width="5.0" x1="514.93" x2="599.43" y1="219.0" y2="219.0"/><line fill="none" stroke="#ffa500" stroke-width="5.0" x1="518.35" x2="602.85" y1="225.5" y2="225.5"/><line fill="none" stroke="#0f0" stroke-width="5.0" x1="523.48" x2="607.98" y1="232.0" y2="232.0"/><line fill="none" stroke="#ffa500" stroke-width="5.0" x1="523.48" x2="607.98" y1="238.5" y2="238.5"/><line fill="none" stroke="#ffa500" stroke-width="5.0" x1="525.19" x2="609.69" y1="290.5" y2="290.5"/><line fill="none" stroke="#ffa500" stroke-width="5.0" x1="537.16" x2="621.66" y1="63.0" y2="63.0"/><line fill="none" stroke="#0f0" stroke-width="5.0" x1="542.29" x2="626.79" y1="69.5" y2="69.5"/><line fill="none" stroke="#ff4500" stroke-width="5.0" x1="544.0" x2="628.5" y1="76.0" y2="76.0"/><line fill="none" stroke="#0f0" stroke-width="5.0" x1="545.71" x2="630.21" y1="82.5" y2="82.5"/><line fill="none" stroke="#0f0" stroke-width="5.0" x1="545.71" x2="630.21" y1="89.0" y2="89.0"/><line fill="none" stroke="#ffa500" stroke-width="5.0" x1="549.13" x2="633.63" y1="95.5" y2="95.5"/><line fill="none" stroke="#ff4500" stroke-width="5.0" x1="559.39" x2="643.89" y1="102.0" y2="102.0"/><line fill="none" stroke="#ffa500" stroke-width="5.0" x1="566.23" x2="650.73" y1="108.5" y2="108.5"/><line fill="none" stroke="#0f0" stroke-width="5.0" x1="569.65" x2="654.15" y1="115.0" y2="115.0"/><line fill="none" stroke="#0f0" stroke-width="5.0" x1="571.36" x2="655.86" y1="121.5" y2="121.5"/><line fill="none" stroke="#ffa500" stroke-width="5.0" x1="574.78" x2="659.28" y1="128.0" y2="128.0"/><line fill="none" stroke="#ffa500" stroke-width="5.0" x1="576.49" x2="660.99" y1="134.5" y2="134.5"/><line fill="none" stroke="#0f0" stroke-width="5.0" x1="576.49" x2="660.99" y1="141.0" y2="141.0"/><line fill="none" stroke="#f00" stroke-width="5.0" x1="578.2" x2="662.7" y1="147.5" y2="147.5"/><line fill="none" stroke="#ffa500" stroke-width="5.0" x1="586.75" x2="671.25" y1="154.0" y2="154.0"/><line fill="none" stroke="#ffa500" stroke-width="5.0" x1="588.46" x2="672.96" y1="160.5" y2="160.5"/><line fill="none" stroke="#ffa500" stroke-width="5.0" x1="595.3" x2="679.8" y1="167.0" y2="167.0"/><line fill="none" stroke="#ff4500" stroke-width="5.0" x1="598.72" x2="683.22" y1="173.5" y2="173.5"/><line fill="none" stroke="#ff4500" stroke-width="5.0" x1="600.43" x2="684.93" y1="180.0" y2="180.0"/><line fill="none" stroke="#f00" stroke-width="5.0" x1="602.14" x2="686.64" y1="186.5" y2="186.5"/><line fill="none" stroke="#0f0" stroke-width="5.0" x1="605.56" x2="690.06" y1="193.0" y2="193.0"/><line fill="none" stroke="#0f0" stroke-width="5.0" x1="612.4" x2="696.9" y1="199.5" y2="199.5"/><line fill="none" stroke="#0f0" stroke-width="5.0" x1="615.82" x2="700.32" y1="206.0" y2="206.0"/><line fill="none" stroke="#ff4500" stroke-width="5.0" x1="617.53" x2="702.03" y1="212.5" y2="212.5"/><line fill="none" stroke="#f00" stroke-width="5.0" x1="617.53" x2="702.03" y1="219.0" y2="219.0"/><line fill="none" stroke="#0f0" stroke-width="5.0" x1="619.24" x2="703.74" y1="225.5" y2="225.5"/><line fill="none" stroke="#0f0" stroke-width="5.0" x1="622.66" x2="707.16" y1="232.0" y2="232.0"/><line fill="none" stroke="#0f0" stroke-width="5.0" x1="624.37" x2="708.87" y1="63.0" y2="63.0"/><line fill="none" stroke="#ffa500" stroke-width="5.0" x1="626.08" x2="710.58" y1="310.0" y2="310.0"/><line fill="none" stroke="#0f0" stroke-width="5.0" x1="626.08" x2="710.58" y1="297.0" y2="297.0"/><line fill="none" stroke="#ffa500" stroke-width="5.0" x1="627.79" x2="712.29" y1="303.5" y2="303.5"/><line fill="none" stroke="#ffa500" stroke-width="5.0" x1="629.5" x2="714.0" y1="316.5" y2="316.5"/><line fill="none" stroke="#ffa500" stroke-width="5.0" x1="631.21" x2="715.71" y1="245.0" y2="245.0"/><line fill="none" stroke="#ffa500" stroke-width="5.0" x1="631.21" x2="715.71" y1="251.5" y2="251.5"/><line fill="none" stroke="#ff4500" stroke-width="5.0" x1="636.34" x2="720.84" y1="258.0" y2="258.0"/><line fill="none" stroke="#ffa500" stroke-width="5.0" x1="638.05" x2="722.55" y1="264.5" y2="264.5"/><line fill="none" stroke="#ffa500" stroke-width="5.0" x1="641.47" x2="725.97" y1="271.0" y2="271.0"/><line fill="none" stroke="#ffa500" stroke-width="5.0" x1="643.18" x2="727.68" y1="277.5" y2="277.5"/><line fill="none" stroke="#ffa500" stroke-width="5.0" x1="644.89" x2="729.39" y1="284.0" y2="284.0"/><line fill="none" stroke="#0f0" stroke-width="5.0" x1="646.6" x2="731.1" y1="238.5" y2="238.5"/><line fill="none" stroke="#0f0" stroke-width="5.0" x1="655.15" x2="739.65" y1="290.5" y2="290.5"/><line fill="none" stroke="#ffa500" stroke-width="5.0" x1="660.28" x2="744.78" y1="69.5" y2="69.5"/><line fill="none" stroke="#ffa500" stroke-width="5.0" x1="661.99" x2="746.49" y1="76.0" y2="76.0"/><line fill="none" stroke="#ffa500" stroke-width="5.0" x1="661.99" x2="746.49" y1="82.5" y2="82.5"/><line fill="none" stroke="#ffa500" stroke-width="5.0" x1="665.41" x2="749.91" y1="89.0" y2="89.0"/><line fill="none" stroke="#0f0" stroke-width="5.0" x1="665.41" x2="749.91" y1="95.5" y2="95.5"/><line fill="none" stroke="#ffa500" stroke-width="5.0" x1="668.83" x2="753.33" y1="102.0" y2="102.0"/><line fill="none" stroke="#0f0" stroke-width="5.0" x1="670.54" x2="755.04" y1="108.5" y2="108.5"/><line fill="none" stroke="#0f0" stroke-width="5.0" x1="670.54" x2="755.04" y1="115.0" y2="115.0"/><line fill="none" stroke="#ffa500" stroke-width="5.0" x1="679.09" x2="763.59" y1="121.5" y2="121.5"/><line fill="none" stroke="#ffa500" stroke-width="5.0" x1="682.51" x2="767.01" y1="128.0" y2="128.0"/><line fill="none" stroke="#f00" stroke-width="5.0" x1="684.22" x2="768.72" y1="134.5" y2="134.5"/><line fill="none" stroke="#ff4500" stroke-width="5.0" x1="685.93" x2="770.43" y1="141.0" y2="141.0"/><line fill="none" stroke="#0f0" stroke-width="5.0" x1="687.64" x2="772.14" y1="147.5" y2="147.5"/><line fill="none" stroke="#0f0" stroke-width="5.0" x1="687.64" x2="772.14" y1="154.0" y2="154.0"/><line fill="none" stroke="#ffa500" stroke-width="5.0" x1="687.64" x2="772.14" y1="160.5" y2="160.5"/><line fill="none" stroke="#0f0" stroke-width="5.0" x1="689.35" x2="773.85" y1="167.0" y2="167.0"/><line fill="none" stroke="#ffa500" stroke-width="5.0" x1="689.35" x2="773.85" y1="173.5" y2="173.5"/><line fill="none" stroke="#ffa500" stroke-width="5.0" x1="691.06" x2="775.56" y1="180.0" y2="180.0"/><line fill="none" stroke="#0f0" stroke-width="5.0" x1="691.06" x2="775.56" y1="186.5" y2="186.5"/><line fill="none" stroke="#ffa500" stroke-width="5.0" x1="692.77" x2="777.27" y1="193.0" y2="193.0"/><line fill="none" stroke="#ffa500" stroke-width="5.0" x1="692.77" x2="777.27" y1="323.0" y2="323.0"/><line fill="none" stroke="#ff4500" stroke-width="5.0" x1="694.48" x2="778.98" y1="329.5" y2="329.5"/><line fill="none" stroke="#ffa500" stroke-width="5.0" x1="694.48" x2="778.98" y1="336.0" y2="336.0"/><line fill="none" stroke="#0f0" stroke-width="5.0" x1="696.19" x2="780.69" y1="342.5" y2="342.5"/><line fill="none" stroke="#ffa500" stroke-width="5.0" x1="697.9" x2="782.4" y1="349.0" y2="349.0"/><line fill="none" stroke="#ffa500" stroke-width="5.0" x1="701.32" x2="785.82" y1="199.5" y2="199.5"/><line fill="none" stroke="#0f0" stroke-width="5.0" x1="704.74" x2="789.24" y1="206.0" y2="206.0"/><line fill="none" stroke="#f00" stroke-width="5.0" x1="706.45" x2="790.95" y1="212.5" y2="212.5"/><line fill="none" stroke="#ff4500" stroke-width="5.0" x1="708.16" x2="792.66" y1="219.0" y2="219.0"/><line fill="none" stroke="#ff4500" stroke-width="5.0" x1="709.87" x2="794.37" y1="225.5" y2="225.5"/><line fill="none" stroke="#ffa500" stroke-width="5.0" x1="709.87" x2="794.37" y1="232.0" y2="232.0"/><line fill="none" stroke="#ffa500" stroke-width="5.0" x1="713.29" x2="797.79" y1="63.0" y2="63.0"/><line fill="none" stroke="#ffa500" stroke-width="5.0" x1="723.55" x2="808.05" y1="297.0" y2="297.0"/><line fill="none" stroke="#0f0" stroke-width="5.0" x1="732.1" x2="816.6" y1="310.0" y2="310.0"/><line fill="none" stroke="#ff4500" stroke-width="5.0" x1="733.81" x2="818.31" y1="303.5" y2="303.5"/><line fill="none" stroke="#0f0" stroke-width="5.0" x1="733.81" x2="818.31" y1="316.5" y2="316.5"/><line fill="none" stroke="#0f0" stroke-width="5.0" x1="735.52" x2="820.02" y1="245.0" y2="245.0"/><line fill="none" stroke="#ff4500" stroke-width="5.0" x1="737.23" x2="821.73" y1="251.5" y2="251.5"/><line fill="none" stroke="#ffa500" stroke-width="5.0" x1="737.23" x2="821.73" y1="258.0" y2="258.0"/><line fill="none" stroke="#ff4500" stroke-width="5.0" x1="742.36" x2="826.86" y1="264.5" y2="264.5"/><line fill="none" stroke="#ffa500" stroke-width="5.0" x1="742.36" x2="826.86" y1="271.0" y2="271.0"/><line fill="none" stroke="#0f0" stroke-width="5.0" x1="742.36" x2="826.86" y1="277.5" y2="277.5"/><line fill="none" stroke="#f00" stroke-width="5.0" x1="744.07" x2="828.57" y1="284.0" y2="284.0"/><line fill="none" stroke="#ffa500" stroke-width="5.0" x1="747.49" x2="831.99" y1="238.5" y2="238.5"/><line fill="none" stroke="#ff4500" stroke-width="5.0" x1="750.91" x2="835.41" y1="290.5" y2="290.5"/><line fill="none" stroke="#ff4500" stroke-width="5.0" x1="752.62" x2="837.12" y1="69.5" y2="69.5"/><line fill="none" stroke="#ffa500" stroke-width="5.0" x1="756.04" x2="840.54" y1="76.0" y2="76.0"/><line fill="none" stroke="#0f0" stroke-width="5.0" x1="759.46" x2="843.96" y1="82.5" y2="82.5"/><line fill="none" stroke="#0f0" stroke-width="5.0" x1="761.17" x2="845.67" y1="89.0" y2="89.0"/><line fill="none" stroke="#ffa500" stroke-width="5.0" x1="762.88" x2="847.38" y1="95.5" y2="95.5"/><line fill="none" stroke="#ff4500" stroke-width="5.0" x1="764.59" x2="849.09" y1="102.0" y2="102.0"/><line fill="none" stroke="#ffa500" stroke-width="5.0" x1="771.43" x2="855.93" y1="108.5" y2="108.5"/><line fill="none" stroke="#0f0" stroke-width="5.0" x1="773.14" x2="857.64" y1="115.0" y2="115.0"/><line fill="none" stroke="#f00" stroke-width="5.0" x1="774.85" x2="859.35" y1="121.5" y2="121.5"/><line fill="none" stroke="#ffa500" stroke-width="5.0" x1="774.85" x2="859.35" y1="128.0" y2="128.0"/><line fill="none" stroke="#ffa500" stroke-width="5.0" x1="778.27" x2="862.77" y1="134.5" y2="134.5"/><line fill="none" stroke="#ff4500" stroke-width="5.0" x1="778.27" x2="862.77" y1="141.0" y2="141.0"/><line fill="none" stroke="#ffa500" stroke-width="5.0" x1="779.98" x2="864.48" y1="147.5" y2="147.5"/><line fill="none" stroke="#ffa500" stroke-width="5.0" x1="783.4" x2="867.9" y1="154.0" y2="154.0"/><line fill="none" stroke="#0f0" stroke-width="5.0" x1="788.53" x2="873.03" y1="160.5" y2="160.5"/><line fill="none" stroke="#0f0" stroke-width="5.0" x1="790.24" x2="874.74" y1="167.0" y2="167.0"/><line fill="none" stroke="#ff4500" stroke-width="5.0" x1="791.95" x2="876.45" y1="173.5" y2="173.5"/><line fill="none" stroke="#ff4500" stroke-width="5.0" x1="791.95" x2="876.45" y1="180.0" y2="180.0"/><line fill="none" stroke="#ffa500" stroke-width="5.0" x1="791.95" x2="876.45" y1="186.5" y2="186.5"/><line fill="none" stroke="#ffa500" stroke-width="5.0" x1="791.95" x2="876.45" y1="193.0" y2="193.0"/><line fill="none" stroke="#ff4500" stroke-width="5.0" x1="793.66" x2="878.16" y1="323.0" y2="323.0"/><line fill="none" stroke="#0f0" stroke-width="5.0" x1="805.63" x2="885.0" y1="63.0" y2="63.0"/><line fill="none" stroke="#ff4500" stroke-width="5.0" x1="805.63" x2="885.0" y1="69.5" y2="69.5"/><line fill="none" stroke="#ffa500" stroke-width="5.0" x1="807.34" x2="885.0" y1="76.0" y2="76.0"/><line fill="none" stroke="#ffa500" stroke-width="5.0" x1="810.76" x2="885.0" y1="82.5" y2="82.5"/><line fill="none" stroke="#ffa500" stroke-width="5.0" x1="812.47" x2="885.0" y1="89.0" y2="89.0"/><line fill="none" stroke="#ff4500" stroke-width="5.0" x1="817.6" x2="885.0" y1="95.5" y2="95.5"/><line fill="none" stroke="#ff4500" stroke-width="5.0" x1="817.6" x2="885.0" y1="102.0" y2="102.0"/><line fill="none" stroke="#ffa500" stroke-width="5.0" x1="817.6" x2="885.0" y1="108.5" y2="108.5"/><line fill="none" stroke="#0f0" stroke-width="5.0" x1="819.31" x2="885.0" y1="115.0" y2="115.0"/><line fill="none" stroke="#f00" stroke-width="5.0" x1="819.31" x2="885.0" y1="121.5" y2="121.5"/><line fill="none" stroke="#ffa500" stroke-width="5.0" x1="829.57" x2="885.0" y1="128.0" y2="128.0"/><line fill="none" stroke="#0f0" stroke-width="5.0" x1="831.28" x2="885.0" y1="134.5" y2="134.5"/><line fill="none" stroke="#ff4500" stroke-width="5.0" x1="834.7" x2="885.0" y1="141.0" y2="141.0"/><line fill="none" stroke="#0f0" stroke-width="5.0" x1="834.7" x2="885.0" y1="147.5" y2="147.5"/><line fill="none" stroke="#ff4500" stroke-width="5.0" x1="836.41" x2="885.0" y1="154.0" y2="154.0"/><line fill="none" stroke="#ff4500" stroke-width="5.0" x1="836.41" x2="885.0" y1="160.5" y2="160.5"/><line fill="none" stroke="#ff4500" stroke-width="5.0" x1="838.12" x2="885.0" y1="167.0" y2="167.0"/><line fill="none" stroke="#ffa500" stroke-width="5.0" x1="839.83" x2="885.0" y1="173.5" y2="173.5"/><line fill="none" stroke="#ffa500" stroke-width="5.0" x1="850.09" x2="885.0" y1="180.0" y2="180.0"/><line fill="none" stroke="#0f0" stroke-width="5.0" x1="851.8" x2="885.0" y1="186.5" y2="186.5"/><line fill="none" stroke="#ffa500" stroke-width="5.0" x1="853.51" x2="885.0" y1="193.0" y2="193.0"/><line fill="none" stroke="#0f0" stroke-width="5.0" x1="862.06" x2="885.0" y1="199.5" y2="199.5"/><line fill="none" stroke="#0f0" stroke-width="5.0" x1="865.48" x2="885.0" y1="206.0" y2="206.0"/><line fill="none" stroke="#0f0" stroke-width="5.0" x1="872.32" x2="885.0" y1="212.5" y2="212.5"/><line fill="none" stroke="#0f0" stroke-width="5.0" x1="874.03" x2="885.0" y1="219.0" y2="219.0"/><line fill="none" stroke="#0f0" stroke-width="5.0" x1="884.29" x2="885.0" y1="225.5" y2="225.5"/><line fill="none" stroke="#0f0" stroke-width="5.0" x1="884.29" x2="885.0" y1="232.0" y2="232.0"/></svg>